<?xml version="1.0" encoding="utf-8"?>
<svg viewBox="0 0 512 512" style="width: 256px; height: 256px; opacity: 1;" xmlns="http://www.w3.org/2000/svg">
  <defs>
    <style type="text/css">
	.st0{fill:#374149;}
</style>
  </defs>
  <g style="" transform="matrix(0.997537, 0, 0, 1, 0, 0)">
    <path class="st0" d="M 256 0 C 114.617 0 0 114.614 0 256 C 0 397.383 114.617 512 256 512 C 397.383 512 512 397.383 512 256 C 512 114.614 397.383 0 256 0 Z M 256.632 475.744 C 131.525 475.29 34.929 383.652 34.924 258.523 C 34.919 133.394 124.745 40.012 253.472 38.778 C 382.199 37.544 471.945 128.483 472.02 256 C 472.095 383.517 381.739 476.198 256.632 475.744 Z" style="fill: rgb(255, 255, 255);"/>
    <polygon class="st0" points="349.351,206.446 349.351,142.828 317.813,142.828 317.813,161.527 317.699,174.527 256.633,112.946 &#10;&#9;&#9;256.11,112.418 256.11,112.418 256,112.305 178.418,190.539 123.828,245.434 123.984,245.434 123.828,245.594 167.875,245.594 &#10;&#9;&#9;167.984,245.594 167.984,367.687 231.031,367.687 231.422,367.687 231.422,367.687 231.578,367.687 231.578,314.782 &#10;&#9;&#9;280.282,314.782 280.422,314.782 280.422,367.687 344.008,367.687 344.008,245.594 369.652,245.594 388.062,245.707 &#10;&#9;&#9;387.946,245.594 388.172,245.594 &#9;" style="fill: rgb(255, 255, 255);"/>
  </g>
</svg>